<?xml version="1.0" standalone="no"?>
<!DOCTYPE svg PUBLIC "-//W3C//DTD SVG 1.1//EN" "http://www.w3.org/Graphics/SVG/1.1/DTD/svg11.dtd">
<svg xmlns="http://www.w3.org/2000/svg">
<metadata>Copyright (C) 2018 by original authors @ fontello.com</metadata>
<defs>
<font id="fontello" horiz-adv-x="1000" >
<font-face font-family="fontello" font-weight="400" font-stretch="normal" units-per-em="1000" ascent="850" descent="-150" />
<missing-glyph horiz-adv-x="1000" />
<glyph glyph-name="behance-logo" unicode="&#xe800;" d="M421 433c0 39-26 39-26 39h-14-93 0v-82h100c18 0 33 5 33 43z m248-43c-57 0-65-57-65-57h121c0 0 1 57-56 57z m-274-57h-107v-99h95c1 0 4 0 6 0 16 1 45 5 45 48 0 51-39 51-39 51z m105 517c-276 0-500-224-500-500 0-276 224-500 500-500 276 0 500 224 500 500 0 276-224 500-500 500z m89-335h151v-45h-151v45z m-77-237c0-113-117-109-117-109h-107-3-82v368h82 3 107c58 0 104-32 104-98 0-66-56-70-56-70 74 0 69-91 69-91z m284 6h-191c0-69 65-64 65-64 61 0 59 39 59 39h65c0-105-126-98-126-98-151 0-142 141-142 141s0 141 142 141c149 0 128-159 128-159z" horiz-adv-x="1000" />

<glyph glyph-name="calendar" unicode="&#xe801;" d="M941 734h-173v44c0 12-11 23-24 23s-23-11-23-23v-44h-116v44c0 12-11 23-23 23-13 0-24-11-24-23v-44h-116v44c0 12-10 23-23 23s-24-11-24-23v-44h-116v44c0 12-10 23-23 23s-24-11-24-23v-44h-173c-33 0-59-26-59-58v-718c0-33 26-59 59-59h882c33 0 59 26 59 59v718c0 32-26 58-59 58z m12-776c0-7-5-12-12-12h-882c-7 0-12 5-12 12v521h833c13 0 23 10 23 23s-10 24-23 24h-833v150c0 6 5 12 12 12h173v-44c0-13 11-23 24-23 13 0 23 10 23 23v44h116v-44c0-13 11-23 24-23 13 0 23 10 23 23v44h116v-44c0-13 11-23 24-23s23 10 23 23v44h116v-44c0-13 11-23 23-23s24 10 24 23v44h173c7 0 12-6 12-12v-718z m-146 429h-153-154-153-154c-12 0-21-9-21-21v-154-153c0-12 9-21 21-21h154 153 154 153c12 0 21 9 21 21v153 154c0 12-9 21-21 21z m-482-307h-111v111h111v-111z m0 154h-111v111h111v-111z m154-154h-111v111h111v-111z m0 154h-111v111h111v-111z m153-154h-111v111h111v-111z m0 154h-111v111h111v-111z m154-154h-111v111h111v-111z m0 154h-111v111h111v-111z" horiz-adv-x="1000" />

<glyph glyph-name="clock" unicode="&#xe802;" d="M500 850c138 0 263-56 353-146 91-91 147-216 147-354 0-138-56-263-147-354-90-90-215-146-353-146s-263 56-353 146c-91 91-147 216-147 354 0 138 56 263 147 354 90 90 215 146 353 146l0 0z m255-473c15 0 27-12 27-27 0-15-12-27-27-27h-254-1c-10 0-19 6-24 14l0 0 0 0 0 1 0 0v0l0 0-1 1 0 0 0 1 0 0v0l0 0-1 1 0 0 0 0 0 0v1l0 0 0 1 0 0v0l0 0-1 1 0 0v1l0 0v0 1l0 0 0 0v1l0 0v0l0 0v1l0 0v1l0 0v0l0 0v1l0 0v326c0 15 12 26 27 26 15 0 27-11 27-26v-299h228z m60 288c-81 81-192 130-315 130s-235-49-315-130c-81-81-131-192-131-315 0-123 50-234 131-315 80-81 192-130 315-130s234 49 315 130c81 81 131 192 131 315 0 123-50 234-131 315l0 0z" horiz-adv-x="1000" />

<glyph glyph-name="cookie" unicode="&#xe803;" d="M720 570c-10 42-27 82-51 118-4 5-10 8-16 6-5-2-9-7-9-13 0-19-7-36-19-49-15-15-36-22-58-19-5 1-10-1-13-5-12-17-33-28-54-28s-41 11-54 28c-3 4-8 6-13 5-21-3-42 4-57 19-15 15-22 36-19 57 1 5-1 10-5 13-17 13-28 33-28 54 0 21 11 42 28 54 4 3 6 8 5 13 0 4-1 8 0 13 0 4-2 7-4 10s-7 4-11 4c-192-12-342-172-342-364 0-168 117-316 280-355 39-163 186-281 355-281 201 0 365 164 365 365 0 168-117 316-280 355z m-693-84c0 171 129 315 296 335-16-17-26-41-26-65 0-27 12-53 33-71-2-27 8-53 27-72 19-19 45-29 72-27 18-21 44-33 71-33 27 0 53 12 71 33 27-2 53 8 73 27 9 9 15 19 20 31 15-28 25-57 32-88 5-23 7-46 7-70 0-186-152-338-338-338-6 0-12 0-19 0-17 1-35 4-52 7-155 33-267 172-267 331z m608-609c-152 0-286 103-326 248 1 0 2 0 3 0 7-1 14-2 22-3 2 0 4 0 6 0 8-1 17-1 25-1 201 0 365 164 365 365 0 8 0 16-1 24 0 3 0 5 0 7-1 7-2 14-3 21 0 1 0 2 0 3 144-41 247-174 247-326 0-186-152-338-338-338z m-324 351h-27c-8 0-14-6-14-13s6-14 14-14h27c7 0 13 6 13 14s-6 13-13 13z m81 54h-27c-7 0-13-6-13-13s6-14 13-14h27c8 0 14 7 14 14s-6 13-14 13z m40 217c-36 36-133 77-172 39-18-18-21-50-8-90 10-32 28-64 46-82 19-19 43-28 67-28 24 0 49 9 67 28 18 17 28 41 28 66 0 26-10 50-28 67z m-115-114c-14 14-31 44-39 71-5 16-7 30-7 41 16-27 43-71 65-93 10-10 27-27 44-37-22-5-46 1-63 18z m96 0c0 0-10-9-58 38-15 15-34 44-48 68 24-15 52-34 68-49 16-17 28-31 34-41 2-3 7-13 4-16z m18 32c-8 12-20 27-37 44-22 22-66 49-94 65 2 0 3 1 5 1 33 0 85-24 108-47 13-13 20-29 20-48 0-5-1-10-2-15z m204-486h-27c-7 0-13-6-13-13s6-14 13-14h27c8 0 14 6 14 14s-6 13-14 13z m55 54h-28c-7 0-13-6-13-13s6-14 13-14h28c7 0 13 6 13 14s-6 13-13 13z m174 324c-37 37-97 37-134 0-18-18-36-50-46-82-13-40-10-72 8-90 10-10 26-15 45-15 13 0 28 2 45 7 32 10 64 29 82 47 18 17 28 41 28 67 0 25-10 49-28 66z m-19-19c3-3-2-13-4-16-6-10-18-24-34-41-16-15-44-34-69-49 15 24 34 53 49 68 35 34 49 39 55 39 2 0 3-1 3-1z m-135-71c8 27 24 57 39 71 13 13 31 20 48 20 5 0 10-1 15-2-17-11-34-27-44-37-22-22-49-66-65-93 0 11 2 25 7 41z m135-24c-24-24-79-49-113-46 28 16 72 43 94 65 17 17 29 32 37 44 1-5 2-10 2-15 0-19-7-36-20-48z" horiz-adv-x="1000" />

<glyph glyph-name="delete-button" unicode="&#xe804;" d="M500 850c-276 0-500-224-500-500s224-500 500-500 500 224 500 500-224 500-500 500z m0-914c-228 0-414 186-414 414s186 414 414 414 414-186 414-414-186-414-414-414z m194 607c-17 17-44 17-61 0l-133-132-133 132c-17 17-44 17-60 0s-17-43 0-60l132-133-132-133c-17-17-17-44 0-60 8-9 19-13 30-13 11 0 22 4 30 13l133 132 133-132c8-9 19-13 30-13 11 0 22 4 31 13 16 16 16 43 0 60l-133 133 133 133c16 17 16 44 0 60z" horiz-adv-x="1000" />

<glyph glyph-name="envelope" unicode="&#xe805;" d="M878 731h-756c-67 0-122-55-122-123v-516c0-68 55-123 122-123h756c67 0 122 55 122 123v516c0 68-55 123-122 123z m66-639c0-37-29-67-66-67h-756c-36 0-66 30-66 67v516c0 37 30 66 66 66h756c36 0 66-29 66-66v-516h0z m-313 264l244 220c12 10 13 28 2 39-10 12-28 13-39 2l-337-302-66 58c0 1-1 1-1 1-1 2-3 3-4 4l-268 240c-12 10-29 9-39-3-11-11-10-29 2-39l247-221-246-231c-11-11-12-28-1-40 5-5 13-9 20-9 7 0 14 3 19 8l250 234 68-61c6-4 12-7 19-7 6 0 13 3 18 8l70 62 249-236c5-5 12-8 19-8 8 0 15 3 20 9 11 11 10 29-1 39l-245 233z" horiz-adv-x="1000" />

<glyph glyph-name="facebook-logo" unicode="&#xe806;" d="M500 850c-276 0-500-224-500-500 0-276 224-500 500-500 276 0 500 224 500 500 0 276-224 500-500 500z m124-518h-81c0-130 0-289 0-289h-120c0 0 0 158 0 289h-58v103h58v66c0 48 22 122 121 122l89 0v-100c0 0-54 0-64 0-11 0-26-5-26-28v-60h92l-11-103z" horiz-adv-x="1000" />

<glyph glyph-name="idea" unicode="&#xe807;" d="M112 526h-87c-13 0-24-11-24-25s11-24 24-24h87c13 0 24 11 24 24s-11 25-24 25z m863 0h-87c-13 0-24-11-24-25s11-24 24-24h87c14 0 24 11 24 24s-10 25-24 25z m-763-313c-10 9-25 9-35 0l-63-63c-9-10-9-25 0-35 5-4 11-7 17-7s13 3 17 7l64 64c9 9 9 25 0 34z m630 630c-10 9-25 9-35 0l-61-62c-10-9-10-24 0-34 5-5 11-7 17-7 6 0 12 2 17 7l62 62c9 9 9 25 0 34z m-588-62l-61 62c-10 9-25 9-35 0-9-9-9-25 0-34l62-62c5-5 11-7 17-7s12 2 17 7c10 10 10 25 0 34z m632-631l-63 63c-10 9-25 9-34 0-10-10-10-25 0-34l63-64c4-4 11-7 17-7 6 0 12 3 17 7 9 10 9 25 0 35z m-386 634c-167 0-303-142-303-317 0-81 29-169 80-240 39-55 59-116 59-176v-153c0-26 22-48 49-48h230c27 0 49 22 49 48v153c0 60 20 121 59 176 51 71 80 159 80 240 0 175-136 317-303 317z m115-886h-230v32h115c13 0 24 11 24 24s-11 24-24 24h-115v32h230l0-112c0 0 0 0 0 0z m-149 452l-32 69h132l-32-69c-1-3-2-6-2-9l-19-283h-26l-19 283c0 3-1 6-2 9z m218-95c-43-61-67-129-68-197h-55l19 275 46 100c4 7 3 16-1 23-5 7-12 11-21 11h-208c-9 0-16-4-21-11-4-7-5-16-1-23l46-100 19-275h-54c-2 68-26 136-69 197-44 62-71 142-71 212 0 148 114 269 255 269s255-121 255-269c0-70-26-150-71-212z" horiz-adv-x="1000" />

<glyph glyph-name="instagram-logo" unicode="&#xe808;" d="M500 250c55 0 100 45 100 100 0 22-7 42-19 58-18 26-48 42-81 42-33 0-63-16-81-42-12-16-19-36-19-58 0-55 45-100 100-100z m0 600c-276 0-500-224-500-500 0-276 224-500 500-500 276 0 500 224 500 500 0 276-224 500-500 500z m284-442v-232c0-61-49-110-109-110h-349c-61 0-110 49-110 110v232 116c0 61 49 110 110 110h348c61 0 110-49 110-110v-116z m-128-58c0-86-70-155-156-155-86 0-155 69-155 155 0 21 4 40 11 58h-85v-232c0-31 25-55 55-55h348c30 0 55 24 55 55v232h-85c7-18 12-37 12-58z" horiz-adv-x="1000" />

<glyph glyph-name="laptop" unicode="&#xe809;" d="M886 643h-772c-14 0-25-11-25-25v-456c0-14 11-25 25-25h772c14 0 25 11 25 25v456c0 14-11 25-25 25z m3-481c0-2-1-3-3-3h-772c-2 0-3 1-3 3v456c0 2 1 4 3 4h772c2 0 3-2 3-4v-456z m95-41h-25v509c0 34-28 61-61 61h-796c-33 0-61-27-61-61v-509h-25c-9 0-16-7-16-16v-44c0-29 23-52 52-52h896c29 0 52 23 52 52v44c0 9-7 16-16 16z m-911 509c0 16 13 29 29 29h796c16 0 29-13 29-29v-509h-854v509z m380-541h94v-8c0-4-3-7-7-7h-80c-4 0-7 3-7 7v8z m515-28c0-11-9-20-20-20h-896c-11 0-20 9-20 20v28h25 375v-8c0-16 12-29 28-29h80c16 0 29 13 29 29v8h374 25v-28z" horiz-adv-x="1000" />

<glyph glyph-name="like" unicode="&#xe80a;" d="M940 292c0 49-39 88-88 88h-234c19 34 29 131 29 171 0 68-55 123-123 123h-24c-16 0-29-13-29-29 0-68-27-191-75-239l-2-2c-33-33-61-45-99-64v11c0 16-14 29-30 29h-176c-16 0-29-13-29-29v-472c0-16 13-29 29-29h176c16 0 30 13 30 29v18c58-19 130-47 242-47h198c48 0 88 39 88 88 0 11-2 22-6 32 37 11 65 45 65 86 0 11-3 22-7 32 38 10 65 44 65 85 0 22-8 43-23 60 15 16 23 37 23 59z m-704 0v-354-29h-118v413h118v-30z m616-148c-22 0-158 0-176 0-16 0-29-14-29-30 0-16 13-29 29-29h118c16 0 29-13 29-29s-13-30-29-30c-13 0-105 0-118 0-16 0-29-13-29-29 0-16 13-30 29-30h59c16 0 29-13 29-29s-13-29-29-29h-198c-103 0-166 25-242 50v315c65 33 98 46 143 91 52 52 83 178 90 250 33-2 60-30 60-64 0-45-18-147-50-179-8-9-11-21-6-32 4-11 15-18 27-18h293c16 0 30-13 30-30 0-16-14-29-30-29h-176c-16 0-29-13-29-29 0-17 13-30 29-30h176c16 0 30-14 30-31 0-16-14-29-30-29z m-355 631l-29 59c-8 14-25 20-40 13-14-7-20-25-13-39l29-59c8-15 25-21 40-13 14 7 20 25 13 39z m192 72c-14 7-32 1-39-13l-29-59c-8-14-2-32 13-39 14-8 32-2 39 13l29 59c8 14 2 32-13 39z m105-173h-59c-16 0-29-13-29-29 0-17 13-30 29-30h59c16 0 29 13 29 30 0 16-13 29-29 29z m-411 0h-59c-16 0-29-13-29-29 0-17 13-30 29-30h59c16 0 29 13 29 30 0 16-13 29-29 29z" horiz-adv-x="1000" />

<glyph glyph-name="linkedin-logo" unicode="&#xe80b;" d="M591 421c-43 0-62-23-72-40v34h-81c1-22 0-242 0-242h81v135c0 8 0 15 2 20 6 15 19 30 42 30 29 0 40-23 40-55v-130h81 0v139c0 74-40 109-93 109z m-73-41h0c0 1 0 1 0 1v-1z m-18 470c-276 0-500-224-500-500 0-276 224-500 500-500 276 0 500 224 500 500 0 276-224 500-500 500z m265-726c0-21-17-39-39-39h-455c-22 0-39 18-39 39v460c0 21 17 38 39 38h455c22 0 39-17 39-38v-460z m-411 408c-28 0-46-18-46-42 0-23 17-41 44-41h1c28 0 46 18 46 41-1 24-18 42-45 42z" horiz-adv-x="1000" />

<glyph glyph-name="meetup-logo" unicode="&#xe80c;" d="M479 363c1 13 0 26 0 39-1 1-2 1-3 1-6-17-12-34-18-50 18-6 19-6 21 10z m342-54c41 21 60 65 45 104-32-27-37-66-45-104z m-460 52c0 14-1 27-1 40-1 1-2 1-4 1-3-8-7-17-10-26-4-15-3-15 15-15z m139 489c-276 0-500-224-500-500s224-500 500-500 500 224 500 500-224 500-500 500z m-229-593c-7-2-9 1-11 8-11 37-23 75-36 114 0-5-1-9-1-13-1-23-2-46-4-69 0-5-1-11-3-16-2-3-6-6-10-8-5-1-11 0-17-2-14-4-21 3-28 14-8 14-16 27-24 40-1 0-1 0-2 0 2-12 3-24 5-37 1-7-2-11-8-13-1-1-2-2-4-2-27-10-32-7-37 22-6 40-4 81-3 122 0 3 3 6 5 7 5 2 10 3 15 4 20 3 25 1 35-17 9-18 18-35 27-53 1-3 3-5 5-8 4 20 7 38 12 56 5 17 12 34 18 50 2 3 7 6 11 6 9 0 20 0 29-3 5-2 10-10 12-16 6-21 11-43 16-64 9-38 17-76 26-115-8-2-18-4-28-7z m52 14c-18 12-26 27-25 48 0 25-1 49 6 73 5 20 19 32 33 45 14 13 28 8 43 5 18-3 21-14 21-28 2-24 6-47 1-71-2-6-4-9-10-9-16 1-33 2-51 3-2-16-3-32 7-47 9-13 21-16 36-9 14 6 29 3 40-9-26-18-75-17-101-1z m162-8c-8 2-16 2-24 4-28 7-45 31-46 61-1 28 6 54 18 79 8 17 23 32 36 47 3 2 10 2 15 1 9-3 19-6 28-11 3-1 7-7 7-11-1-15-4-31-5-46-2-18-3-37-5-56-17-11-35-4-54-2-5-18 3-30 14-42 8-10 19-11 30-7 7 3 13 8 19 11 3 1 7 2 10 1 8-2 12-7 12-16-17-9-34-17-55-13z m163 82c-13-2-25-4-38-5-5-1-8-1-8-8 1-12 0-24 1-36 0-13 1-25 1-38-9-2-18-4-29-5-1 14-1 28-2 41-1 14-2 27-4 42-9 1-17 2-26 2-8 0-14 2-13 12 1 9 6 12 15 11 7 0 14 0 22-1-3 29-6 56-8 83-2 19-3 39-2 58 0 21 9 26 28 18 19-9 18-10 18-31-1-32 1-64 2-95 0-7-2-14-3-21 0-3 2-6 3-9 2 2 4 5 4 7 1 7 5 9 10 6 11-8 21-18 31-27-1-2-1-3-2-4z m83-69c-4-4-9-9-14-10-9-2-19-3-29-3-11 1-19 9-21 18-6 26-10 52-14 78-1 8-1 15-1 23 0 11 6 14 16 11 3-1 6-3 9-4 20-9 19-10 20-31 0-22 2-43 3-65 0-3 2-5 3-8 23 19 30 44 30 72 0 6-3 13-2 19 0 5 2 10 5 13 2 2 8 2 11 1 5-2 10-4 15-7 12-5 14-13 14-25-1-25-14-44-29-62-6-7-10-14-16-20z m152 38c-14-12-28-24-43-35-5-4-13-5-20-8-5-20-2-48 9-93-11 0-22-1-34 0-1 0-4 5-5 8-4 27-7 54-11 80-1 5-3 10-6 13-10 9-9 16 2 22 3 1 4 5 5 7 4 24 8 49 14 73 7 26 22 47 47 59 6 4 16 3 24 2 7-1 14-6 21-8 20-5 24-20 26-37 4-32-3-61-29-83z" horiz-adv-x="1000" />

<glyph glyph-name="microphone" unicode="&#xe80d;" d="M926 776c-96 95-248 99-349 11-23 12-52 9-72-11-24-24-24-63 0-87l2-2c-16-43-21-91-13-137l-489-551c-7-7-7-19 1-27l116-116c4-4 9-6 14-6 5 0 10 2 14 5l550 489c15-2 30-4 45-4 31 0 63 6 92 17l2-2c12-11 27-18 44-18 16 0 31 7 43 18 12 12 18 28 18 44 0 10-2 20-7 28 88 101 84 253-11 349z m-789-879l-90 90 28 32 94-94-32-28z m62 55l-97 97 415 466 148-148-466-415z m505 432l-170 170c-6 34-5 69 5 102l267-267c-33-10-68-11-102-5z m194 0c-4-5-10-7-15-7-6 0-12 2-16 7l-333 333c-9 9-9 22 0 31 4 4 9 6 15 6s11-2 15-6l334-334c4-4 6-9 6-15 0-6-2-11-6-15z m13 74l-303 303c38 32 86 49 137 49 58 0 112-22 152-63 41-40 63-94 63-152 0-51-17-99-49-137z" horiz-adv-x="1000" />

<glyph glyph-name="placeholder" unicode="&#xe80e;" d="M500 850c-194 0-352-158-352-352 0-65 19-129 53-184l279-450c5-9 15-14 25-14 0 0 0 0 0 0 10 0 20 5 25 14l272 454c32 55 50 117 50 180 0 194-158 352-352 352z m252-502l-248-412-253 408c-29 47-44 100-44 154 0 162 132 294 293 294s293-132 293-294c0-52-14-104-41-150z m-252 326c-97 0-176-79-176-176 0-96 78-175 176-175 99 0 176 80 176 175 0 97-79 176-176 176z m0-293c-65 0-118 53-118 117 0 65 53 118 118 118s117-53 117-118c0-63-51-117-117-117z" horiz-adv-x="1000" />

<glyph glyph-name="github-logo" unicode="&#xe80f;" d="M933 589c-45 76-105 137-182 182-77 44-160 67-251 67-91 0-174-23-251-67-77-45-137-106-182-182-45-77-67-160-67-251 0-109 32-207 95-294 64-87 146-147 247-181 12-2 20-1 26 5 6 5 8 11 8 19 0 2 0 13 0 35 0 23 0 42 0 58l-15-2c-10-2-22-3-36-3-15 1-30 2-46 5-15 3-30 9-43 20-14 10-23 23-29 40l-6 15c-5 10-12 21-21 33-9 12-19 20-28 25l-5 3c-3 2-6 5-8 8-3 3-5 6-6 9-1 3 0 5 3 7 4 2 10 3 19 3l13-2c9-2 19-7 32-15 13-9 24-20 32-34 10-18 22-32 36-41 14-9 28-14 43-14 14 0 26 1 37 3 10 2 20 6 29 10 4 29 15 52 32 67-25 3-47 7-67 12-20 5-40 14-61 25-21 12-39 27-52 44-14 17-26 40-35 68-9 28-13 61-13 98 0 52 17 97 51 134-16 39-14 84 5 133 13 4 31 1 56-9 25-10 43-18 54-25 12-7 21-13 28-18 40 12 82 17 125 17s85-5 125-17l25 16c17 10 37 20 60 29 23 8 40 11 52 7 20-49 22-94 6-133 34-37 51-82 51-134 0-37-4-70-13-98-9-29-21-51-35-68-14-18-31-32-53-44-21-11-41-20-61-25-19-5-42-9-66-12 22-19 33-50 33-92v-138c0-8 3-14 9-19 5-5 14-7 25-5 101 34 183 94 247 181 63 87 95 185 95 294 0 91-22 174-67 251z" horiz-adv-x="1000" />

<glyph glyph-name="slack" unicode="&#xe810;" d="M996 314c-16 47-66 72-113 57l-89-29c-20 61-41 126-61 187 54 18 89 29 89 29 47 16 73 66 58 113-16 47-66 72-113 57l-89-29c-18 54-30 89-30 89-15 47-65 73-112 58s-72-66-57-113l29-89-187-61c-18 54-29 89-29 89-16 47-66 73-113 58-46-16-72-66-57-113l29-89-92-30c-44-16-69-63-55-109 13-47 63-76 110-61 0 0 37 12 92 30l61-187-92-30c-44-16-69-63-56-109 14-47 64-76 111-61 0 0 37 12 92 30l31-92c15-44 63-69 108-56 47 14 76 64 61 111 0 0-12 37-30 92 61 20 126 41 187 61l30-92c16-44 63-69 109-56 47 14 76 64 61 111 0 0-12 36-30 92 54 18 89 30 89 30 47 15 73 65 58 112z m-559-88c-20 61-41 126-61 187 61 20 126 41 187 61l61-187-187-61z" horiz-adv-x="1000" />

<glyph glyph-name="twitter-logo" unicode="&#xe811;" d="M500 850c-276 0-500-224-500-500 0-276 224-500 500-500 276 0 500 224 500 500 0 276-224 500-500 500z m223-386c0-4 0-9 0-14 0-153-115-328-327-328-65 0-126 19-176 52 9-1 18-2 27-2 54 0 104 19 143 49-50 1-93 35-108 80 7-1 15-2 22-2 11 0 21 2 30 4-52 11-92 57-92 113 0 1 0 1 0 2 16-9 33-14 52-15-31 21-51 56-51 96 0 21 6 41 16 58 56-70 141-116 237-120-2 8-3 17-3 26 0 63 51 115 115 115 33 0 63-14 84-36 26 5 51 14 73 28-9-27-27-50-51-64 24 3 46 9 66 18-15-23-34-43-57-60z" horiz-adv-x="1000" />

<glyph glyph-name="user" unicode="&#xe813;" d="M386 175c-31 0-57-26-57-57 0-32 26-58 57-58 32 0 58 26 58 58 0 31-26 57-58 57z m0-85c-15 0-27 13-27 28s12 27 27 27 28-12 28-27-13-28-28-28z m0 533c-74 0-134-60-134-135v-81c0-74 60-134 134-134s135 60 135 134v81c0 75-60 135-135 135z m105-216c0-57-47-104-105-104s-104 47-104 104v37h0 28c37 0 73 17 96 45l9-9c21-20 47-33 76-36v-37z m0 68c-21 2-40 12-55 26l-21 22c-4 3-8 5-13 4-5-1-9-3-11-7-17-28-48-46-81-46h-28v14c0 58 47 105 104 105 58 0 105-47 105-105v-13z m231-481h-31v113c0 53-34 98-84 113-15 30-46 52-82 52h-277c-36 0-67-22-82-52-50-15-84-60-84-113v-113h-31c-8 0-15-7-15-15s7-15 15-15h671c8 0 15 6 15 15s-7 15-15 15z m-565 186v-186h-45v113c0 33 18 62 45 77 0-1 0-3 0-4z m429-186h-338v70c0 8-7 15-16 15s-15-7-15-15v-70h-30v186c0 34 28 61 61 61h277c33 0 61-27 61-61v-186z m75 0h-45v186c0 1 0 3 0 4 27-15 45-44 45-77v-113z m-625 680l29 29c6 6 6 15 0 21-6 6-16 6-21 0l-40-39c-2-3-4-7-4-11 0-4 2-8 4-10l40-39c3-3 6-5 10-5 4 0 8 2 11 5 6 5 6 15 0 21l-29 28z m209 11l-39 39c-6 6-16 6-21 0-6-6-6-15 0-21l28-29-28-28c-6-6-6-16 0-21 3-3 6-5 10-5 4 0 8 2 11 5l39 39c6 6 6 15 0 21z m-85 49c-7 5-16 2-21-5l-55-94c-4-7-2-16 5-21 3-1 6-2 8-2 5 0 10 3 13 8l55 94c5 7 2 16-5 20z m608-141l-16 14c0 2 0 5 0 7s0 5 0 7l16 15c5 4 6 12 3 18l-25 42c-3 7-11 9-17 7l-20-6c-4 2-8 5-13 7l-4 20c-2 7-8 12-15 12h-49c-7 0-13-5-14-12l-5-20c-4-2-8-5-12-7l-20 6c-7 2-14 0-18-7l-24-42c-4-6-2-14 3-18l15-15c0-2 0-4 0-7s0-5 0-7l-15-14c-5-5-7-13-3-19l24-42c4-6 11-9 18-7l20 7c4-3 8-5 12-7l5-21c1-7 7-12 14-12h49c7 0 13 5 15 12l4 21c5 2 9 4 13 7l20-7c6-2 14 1 17 7l25 42c3 6 2 14-3 19z m-47 32c1-3 1-7 1-11 0-3 0-7-1-11 0-5 1-10 5-13l13-11-13-21-15 5c-5 1-11 0-15-3-5-4-11-8-18-11-5-1-9-6-10-11l-3-16h-24l-4 16c-1 5-4 10-9 11-7 3-13 7-19 11-4 3-9 4-14 3l-16-5-12 21 12 11c4 3 6 8 5 13 0 4-1 8-1 11 0 4 1 8 1 11 1 5-1 10-5 14l-12 11 12 21 16-5c5-2 10-1 14 2 6 5 12 9 19 11 5 2 8 6 9 11l4 16h24l3-16c1-5 5-9 10-11 7-2 13-6 18-11 4-3 10-4 15-2l15 5 13-21-13-11c-4-4-5-9-5-14z m-588-66h-118c-8 0-15-7-15-16 0-8 7-15 15-15h118c8 0 15 7 15 15 0 9-7 16-15 16z m88 0h-36c-9 0-15-7-15-16 0-8 6-15 15-15h36c9 0 15 7 15 15 0 9-6 16-15 16z m-130-145h-76c-8 0-15-7-15-15 0-9 7-16 15-16h76c8 0 15 7 15 16 0 8-7 15-15 15z m118 0h-66c-8 0-15-7-15-15 0-9 7-16 15-16h66c9 0 16 7 16 16 0 8-7 15-16 15z m-174 72h-20c-8 0-15-7-15-15 0-8 7-15 15-15h20c8 0 15 7 15 15 0 8-7 15-15 15z m174 0h-123c-8 0-15-7-15-15 0-8 7-15 15-15h123c9 0 16 7 16 15 0 8-7 15-16 15z m559-219c-2 3-6 5-10 5-4 0-8-2-11-5-3-3-4-7-4-11s1-7 4-10c3-3 7-5 11-5 4 0 8 2 10 5 3 3 5 7 5 10 0 4-2 8-5 11z m-64 5h-74c-9 0-16-7-16-16 0-8 7-15 16-15h74c8 0 15 7 15 15 0 9-7 16-15 16z m-95 72h-39c-8 0-15-7-15-15s7-15 15-15h39c8 0 15 7 15 15s-7 15-15 15z m149 0h-90c-8 0-15-7-15-15s7-15 15-15h90c8 0 15 7 15 15s-7 15-15 15z m-95 281c-2 3-6 4-10 4s-8-1-11-4c-3-3-4-7-4-11 0-4 1-8 4-10 3-3 7-5 11-5 4 0 8 2 10 5 3 2 5 6 5 10 0 4-2 8-5 11z m-307-216c-3 3-7 5-11 5-4 0-8-2-10-5-3-3-5-6-5-10s2-8 5-11c2-3 6-5 10-5 4 0 8 2 11 5 3 3 4 7 4 11s-1 7-4 10z m82 0c-3 3-6 5-10 5-4 0-8-2-11-5-3-3-5-6-5-10s2-8 5-11c3-3 7-5 11-5 4 0 7 2 10 5 3 3 5 7 5 11s-2 7-5 10z" horiz-adv-x="773" />

<glyph glyph-name="youtube-logo" unicode="&#xe814;" d="M580 287c-13 0-24-7-35-20v81h-34v-249h34v18c11-14 23-21 35-21 13 0 22 7 27 21 2 8 3 20 3 37v75c0 17-1 29-3 37-5 14-14 21-27 21z m-4-135c0-17-4-25-14-25-6 0-11 2-17 8v113c6 6 11 9 17 9 10 0 14-9 14-26v-79z m-128-10c-7-10-14-15-21-15-4 0-7 2-8 8 0 1 0 5 0 13v137h-34v-147c0-14 1-22 3-28 4-10 11-14 22-14 12 0 25 8 38 23v-20h34v186h-34v-143z m29 315c11 0 17 8 17 26v79c0 17-6 26-17 26-11 0-16-9-16-26v-79c0-18 5-26 16-26z m23 393c-276 0-500-224-500-500s224-500 500-500 500 224 500 500-224 500-500 500z m56-234h34v-138c0-8 0-12 0-13 1-6 3-8 8-8 7 0 14 5 22 15v144h34v-188h-34v21c-14-16-27-23-39-23-11 0-19 4-22 14-2 5-3 14-3 28v148l0 0z m-129-61c0 20 3 35 11 44 9 13 22 19 39 19 17 0 31-6 40-19 7-9 11-24 11-44v-66c0-20-4-35-11-44-9-13-23-19-40-19-17 0-30 6-39 19-8 9-11 24-11 44v66z m-91 125l27-99 25 99h39l-46-150v-102h-38v102c-3 18-11 45-23 80-8 24-16 47-24 70h40z m433-598c-7-29-31-51-60-55-69-7-139-7-209-7-70 0-140 0-209 7-29 4-53 25-60 55-10 42-10 89-10 132s0 90 10 132c7 30 31 51 60 55 69 7 139 7 209 7 70 0 140 0 209-7 29-4 54-25 60-55 10-42 10-88 10-132s0-90-10-132z m-82 205c-17 0-30-6-40-19-7-10-11-24-11-44v-65c0-20 4-35 11-44 10-13 23-19 41-19 18 0 31 7 41 20 4 6 7 13 8 20 0 4 0 11 0 22v5h-34c0-13 0-21-1-23-2-9-6-13-15-13-11 0-17 8-17 25v33h67v39c0 20-3 34-10 44-9 13-23 19-40 19z m17-73h-34v17c0 17 6 26 17 26 11 0 17-9 17-26v-17z" horiz-adv-x="1000" />
</font>
</defs>
</svg>
